<svg width="720" height="220" viewBox="0 0 720 220" xmlns="http://www.w3.org/2000/svg" role="img" aria-labelledby="title desc">
  <title id="title">Dynamate logo</title>
  <desc id="desc">Stylized DynamoDB terminal emblem with lightning accent.</desc>
  <defs>
    <linearGradient id="bg" x1="0" y1="0" x2="1" y2="1">
      <stop offset="0%" stop-color="#0b1f2a"/>
      <stop offset="100%" stop-color="#13394a"/>
    </linearGradient>
    <linearGradient id="bolt" x1="0" y1="0" x2="1" y2="1">
      <stop offset="0%" stop-color="#f8d66d"/>
      <stop offset="100%" stop-color="#f39a3b"/>
    </linearGradient>
    <linearGradient id="text" x1="0" y1="0" x2="1" y2="0">
      <stop offset="0%" stop-color="#f2fbff"/>
      <stop offset="100%" stop-color="#b6e9ff"/>
    </linearGradient>
  </defs>

  <rect x="0" y="0" width="720" height="220" rx="24" fill="url(#bg)"/>

  <g transform="translate(42,35)">
    <rect x="0" y="8" width="170" height="136" rx="16" fill="#0f2530" stroke="#48c7ff" stroke-width="4"/>
    <rect x="16" y="24" width="138" height="18" rx="6" fill="#1f4f63"/>
    <rect x="16" y="54" width="104" height="14" rx="5" fill="#2a6f88"/>
    <rect x="16" y="78" width="138" height="14" rx="5" fill="#2a6f88"/>
    <rect x="16" y="102" width="90" height="14" rx="5" fill="#2a6f88"/>
    <ellipse cx="85" cy="150" rx="60" ry="10" fill="#173647"/>
    <ellipse cx="85" cy="140" rx="60" ry="10" fill="#2e91b4"/>
    <ellipse cx="85" cy="130" rx="60" ry="10" fill="#6dd4ff"/>
    <path d="M150 4L124 66H154L122 148L170 76H142L170 4Z" fill="url(#bolt)" stroke="#ffd688" stroke-width="2"/>
  </g>

  <g transform="translate(250,64)">
    <text x="0" y="58" font-family="ui-monospace, SFMono-Regular, Menlo, Monaco, Consolas, Liberation Mono, monospace" font-size="72" font-weight="800" letter-spacing="1.5" fill="url(#text)">dynamate</text>
    <text x="2" y="96" font-family="ui-monospace, SFMono-Regular, Menlo, Monaco, Consolas, Liberation Mono, monospace" font-size="22" fill="#8fdcff">your dynamodb table mate</text>
  </g>
</svg>
